<svg width="140mm" height="60mm" version="1.1" viewBox="0 0 140 60" xmlns="http://www.w3.org/2000/svg" xmlns:xlink="http://www.w3.org/1999/xlink">
 <defs>
  <linearGradient id="linearGradient831" x1="84.582" x2="-8.6544" y1="287.82" y2="228.15" gradientUnits="userSpaceOnUse">
   <stop stop-color="#9146ff" offset="0"/>
   <stop stop-color="#af78ff" offset="1"/>
  </linearGradient>
 </defs>
 <g transform="translate(0,-237)" stroke="#000">
  <path d="m81.511 267.55c7.853-2.2612 15.751-4.1568 15.751-4.1568 1.6385-2.746 4.5159-7.7951 7.8917-9.639 3.7982-2.0519 6.8953-2.075 11.495-1.9219 2.6219 0.66364 3.1236 2.3606 4.0416 5.3962-5.8235 0.4166-6.5507 0.95154-11.684 1.557 10.644-1.5802 18.537-2.2809 24.021-1.6023 8.1977 6.0689 4.669 31.248-0.49671 33.909-8.7247 1.9499-14.175 0.49212-24.136 0.27046-1.7038-0.81391-1.5057-2.6733-4.2522-3.3545-4.8721 2.0257-12.583-1.0788-19.56-0.18899z" fill="#efd5d5" stroke-width=".26458px"/>
  <path d="m7.693 238.12c10.466 1.2336 34.329 20.771 43.711 24.474 6.6537 1.9922 30.965-6.6224 43.771-5.9531 1.6522 8.6226 7.9138 23.316 8.0231 35.152 0.48216 5.9216-51.471 4.3546-63.178 4.0632-10.767 0.0306-31.387-16.481-35.259-19.56-2.5715-2.26-6.6859-39.176 2.9315-38.176z" fill="url(#linearGradient831)" stroke-width=".23906px"/>
 </g>
</svg>
