<?xml version="1.0" encoding="UTF-8" standalone="no"?>
<!-- Created with Inkscape (http://www.inkscape.org/) -->

<svg
   xmlns:dc="http://purl.org/dc/elements/1.1/"
   xmlns:cc="http://creativecommons.org/ns#"
   xmlns:rdf="http://www.w3.org/1999/02/22-rdf-syntax-ns#"
   xmlns:svg="http://www.w3.org/2000/svg"
   xmlns="http://www.w3.org/2000/svg"
   xmlns:sodipodi="http://sodipodi.sourceforge.net/DTD/sodipodi-0.dtd"
   xmlns:inkscape="http://www.inkscape.org/namespaces/inkscape"
   width="76mm"
   height="42mm"
   viewBox="0 0 76 42"
   version="1.1"
   id="svg8"
   inkscape:version="0.92.4 (5da689c313, 2019-01-14)"
   sodipodi:docname="paper.svg">
  <defs
     id="defs2" />
  <sodipodi:namedview
     id="base"
     pagecolor="#ffffff"
     bordercolor="#666666"
     borderopacity="1.0"
     inkscape:pageopacity="0.0"
     inkscape:pageshadow="2"
     inkscape:zoom="3.959798"
     inkscape:cx="205.23424"
     inkscape:cy="96.52024"
     inkscape:document-units="mm"
     inkscape:current-layer="layer1"
     showgrid="false"
     inkscape:window-width="3840"
     inkscape:window-height="2066"
     inkscape:window-x="-11"
     inkscape:window-y="-11"
     inkscape:window-maximized="1" />
  <metadata
     id="metadata5">
    <rdf:RDF>
      <cc:Work
         rdf:about="">
        <dc:format>image/svg+xml</dc:format>
        <dc:type
           rdf:resource="http://purl.org/dc/dcmitype/StillImage" />
        <dc:title></dc:title>
      </cc:Work>
    </rdf:RDF>
  </metadata>
  <g
     inkscape:label="Ebene 1"
     inkscape:groupmode="layer"
     id="layer1"
     transform="translate(0,-255)">
    <path
       style="fill:#efd5d5;fill-opacity:1;stroke:#000000;stroke-width:1;stroke-linecap:butt;stroke-linejoin:miter;stroke-miterlimit:4;stroke-dasharray:none;stroke-opacity:1"
       d="m 73.189855,272.54979 c -0.720582,-1.17315 -7.865167,-5.06767 -10.973247,-6.56217 -6.01777,-14.56347 -40.06688,-10.98873 -30.47777,-2.6735 5.82347,0.4166 12.23018,0.46711 17.36364,1.07259 -10.61706,-1.76659 -33.72016,-0.6438 -39.4938505,2.06397 -2.67276,0.99142 -2.0332,3.99984 -0.51389,4.50825 1.4492205,0.48495 20.5982105,0.44587 23.4354105,0.71883 2.58892,0.24907 -27.9884005,-0.15705 -30.3958105,2.63463 -1.00336,1.16352 -0.99075,3.69306 0.10282,4.18947 5.2755,2.39476 28.6633305,1.09346 30.8759305,1.53137 2.34922,0.46496 -26.1489005,0.52966 -27.4864305,1.74026 -1.23461,1.11744 -1.11043,4.15293 0.78795,4.4149 25.5815605,3.53009 21.6671205,1.78076 25.1092005,2.31097 2.55078,0.39292 -8.87156,-0.94039 -14.71153,1.22399 -0.93647,0.34707 -0.29999,3.38057 0.71534,3.76261 8.72467,1.9499 26.2012,2.83072 31.75204,2.20815 9.11086,-1.44635 21.563589,-0.8963 22.910482,-2.34082 1.602764,-2.12365 3.539622,-14.67081 0.999712,-20.80351 z"
       id="path823-5"
       inkscape:connector-curvature="0"
       sodipodi:nodetypes="cccccsssssssssccccc" />
  </g>
</svg>
