<?xml version="1.0" encoding="UTF-8" standalone="no"?>
<!-- Created with Inkscape (http://www.inkscape.org/) -->

<svg
   xmlns:dc="http://purl.org/dc/elements/1.1/"
   xmlns:cc="http://creativecommons.org/ns#"
   xmlns:rdf="http://www.w3.org/1999/02/22-rdf-syntax-ns#"
   xmlns:svg="http://www.w3.org/2000/svg"
   xmlns="http://www.w3.org/2000/svg"
   xmlns:sodipodi="http://sodipodi.sourceforge.net/DTD/sodipodi-0.dtd"
   xmlns:inkscape="http://www.inkscape.org/namespaces/inkscape"
   width="76mm"
   height="42mm"
   viewBox="0 0 76 42"
   version="1.1"
   id="svg8"
   inkscape:version="0.92.4 (5da689c313, 2019-01-14)"
   sodipodi:docname="scissors.svg">
  <defs
     id="defs2" />
  <sodipodi:namedview
     id="base"
     pagecolor="#ffffff"
     bordercolor="#666666"
     borderopacity="1.0"
     inkscape:pageopacity="0.0"
     inkscape:pageshadow="2"
     inkscape:zoom="3.959798"
     inkscape:cx="205.23424"
     inkscape:cy="96.52024"
     inkscape:document-units="mm"
     inkscape:current-layer="layer1"
     showgrid="false"
     inkscape:window-width="3840"
     inkscape:window-height="2066"
     inkscape:window-x="-11"
     inkscape:window-y="-11"
     inkscape:window-maximized="1" />
  <metadata
     id="metadata5">
    <rdf:RDF>
      <cc:Work
         rdf:about="">
        <dc:format>image/svg+xml</dc:format>
        <dc:type
           rdf:resource="http://purl.org/dc/dcmitype/StillImage" />
        <dc:title></dc:title>
      </cc:Work>
    </rdf:RDF>
  </metadata>
  <g
     inkscape:label="Ebene 1"
     inkscape:groupmode="layer"
     id="layer1"
     transform="translate(0,-255)">
    <path
       style="fill:#efd5d5;fill-opacity:1;stroke:#000000;stroke-width:1;stroke-linecap:butt;stroke-linejoin:miter;stroke-miterlimit:4;stroke-dasharray:none;stroke-opacity:1"
       d="m 73.189846,272.54979 c -0.72058,-1.17315 -10.53786,-5.60221 -13.645949,-7.09671 -5.448819,-12.45634 -21.520481,-10.42435 -20.6556,-2.64009 5.823471,0.4166 5.080719,0.96823 10.214181,1.57372 -10.61706,-1.76659 -31.223371,-4.95352 -36.997062,-2.24575 -2.67275,0.99142 -2.0332,3.99984 -0.51389,4.50825 1.44923,0.48495 18.101411,4.75559 20.938621,5.02855 2.588919,0.24907 -21.950281,5.15493 -24.357691,7.94661 -1.00337,1.16352 -0.99075,3.69306 0.10281,4.18946 5.2755,2.39477 24.219991,-2.929 26.432582,-2.49109 0.58424,12.31489 11.830918,14.17806 17.123148,13.99339 9.110861,-1.44635 19.01224,-0.51832 20.35914,-1.96284 1.60276,-2.12365 3.53962,-14.67081 0.99971,-20.80351 z"
       id="path823-5-5"
       inkscape:connector-curvature="0"
       sodipodi:nodetypes="cccccssssccccc" />
  </g>
</svg>
